<?xml version="1.0" encoding="utf-8"?>
<!-- Generator: Adobe Illustrator 24.0.0, SVG Export Plug-In . SVG Version: 6.00 Build 0)  -->
<svg version="1.1" id="Layer_1" xmlns="http://www.w3.org/2000/svg" xmlns:xlink="http://www.w3.org/1999/xlink" x="0px" y="0px"
	 width="50px" height="50px" viewBox="0 0 50 50" enable-background="new 0 0 50 50" xml:space="preserve">
<path fill="none" stroke="#7E4300" stroke-width="4.0745" stroke-linecap="round" stroke-linejoin="round" stroke-miterlimit="10" d="
	M17.8337,9.4896c0.899-1.7699,1.8373-0.0265,3.8075-0.2556c1.9022-0.2212,3.9909-1.1792,4.1176-1.1159
	c0.2581,0.1291,0.7312,0.6782,1.7144,0.7361c0.8051,0.0473,0.768,0.4277,1.5717,0.4961c0.7187,0.0612,1.1839-0.968,1.7116-0.4763
	c1.016,0.9467,0.4921,1.4081,0.8779,2.7421c0.4126,1.4269-0.469,1.5447-0.1832,3.0023c0.3652,1.8622,1.5501,1.5703,2.1308,3.3769
	c0.5807,1.8066,1.1414,1.7843,1.3487,3.6706c0.1265,1.1513,0.0454,1.4654-0.3136,2.5665c-0.1304,0.3999-0.6228,0.2287-0.999,0.0406
	c-0.8103-0.4051-1.012-1.0839-1.27-1.1485c-0.2581-0.0645-0.8766,0.5952-1.3282,0.5952c-0.4516,0-2.0617-0.9483-2.5778-0.8193
	c-0.5162,0.1291-1.4168-0.0302-2.8405-0.0511c-1.1953-0.0176-2.2161-0.6463-2.5387-0.5817
	c-0.3226,0.0645-1.5921,1.3245-1.8502,1.3245s-3.0716-0.1439-3.2652-0.0794c-0.1936,0.0645-0.7449,0.4813-1.391,0.4296
	c-0.2652-0.0212-0.2557-0.8268-0.4937-0.7079c-0.3695,0.1848,0.364,0.288,0.0443,0.0264c-0.4803-0.393-0.7629,0.0579-0.8047-0.5612
	c-0.1197-1.7715-0.389-1.8006-0.2306-3.569c0.2308-2.578,1.3475-2.5381,1.5285-5.1201
	C16.7637,11.6785,16.7753,11.5732,17.8337,9.4896z"/>
<path fill="none" stroke="#7E4300" stroke-width="4.0745" stroke-linecap="round" stroke-linejoin="round" stroke-miterlimit="10" d="
	M14.8178,24.471c0.1935-0.0645,0.7773-0.9891,1.209-1.0866c0.7892-0.1782,0.9846,1.5775,1.7919,1.5231
	c2.076-0.14,3.0532-0.5755,5.1258-0.7584c2.3174-0.2045,2.2575-1.6834,4.5837-1.7046c1.2297-0.0112,1.1828,1.5656,2.4087,1.6628
	c0.8066,0.0641,0.8641-0.7629,1.5434-0.3234c1.0959,0.7091,1.0368,0.7528,1.8349,1.7857c0.3011,0.3896,0.4251,0.3733,0.5446,0.851
	c0.0874,0.3499-0.5627,0.269-0.6453,0.6201c-0.1756,0.7464,1.7895,0.9336,1.6634,1.69c-0.069,0.4136-0.2011,0.6055-0.607,0.7108
	c-0.8638,0.2239-0.9013,0.1616-1.7866,0.0496c-1.6692-0.2113-1.6144-0.8128-3.2959-0.8736
	c-1.8893-0.0684-1.898,0.3612-3.7886,0.3612c-1.8936,0-5.8936-0.8872-7.7873-0.8872c-1.8936,0-2.0008-0.0518-3.867,0.2695
	c-0.5176,0.0891-0.8272,2.0253-1.1333,1.5986C11.1083,27.8631,14.5005,26.9775,14.8178,24.471z"/>
<path fill="none" stroke="#7E4300" stroke-width="4.0745" stroke-linecap="round" stroke-linejoin="round" stroke-miterlimit="10" d="
	M12.4298,30.3012c0.13-0.5318,0.9375,0.2023,1.4748,0.0972c1.8053-0.3532,1.6896-0.9891,3.5284-1.0375
	c1.8389-0.0484,4.8451,0.2249,6.6844,0.1993c1.6451-0.0228,2.644-0.142,4.2893-0.142s1.5963,0.3152,3.2274,0.5303
	c1.3357,0.1761,1.457-0.4646,2.3282,0.563c0.7096,0.837,2.3985,0.7778,1.9198,1.7652c-0.2116,0.4364-1.9288-0.4736-2.3876-0.6306
	c-0.9079-0.3106,0.2673,0.6711,0.0092,0.6711c-0.2581,0-4.9959-0.4945-5.5121-0.5591c-0.5162-0.0645-9.4942-0.1821-9.7523-0.1175
	c-0.2581,0.0645-1.9679,0.3052-3.8732,0.3892c-0.4202,0.0186-0.1483-0.3037-0.4688-0.0313
	c-0.4293,0.3649-0.202,0.0688-0.7592-0.0146C11.9451,31.8055,12.1769,31.3358,12.4298,30.3012z"/>
<path fill="none" stroke="#7E4300" stroke-width="4.0745" stroke-linecap="round" stroke-linejoin="round" stroke-miterlimit="10" d="
	M13.1558,33.9072c0.0831-0.7056-0.0672-0.6675,0.3627-1.2331c0.1842-0.2423,0.2131-0.1246,0.5033-0.2163
	c1.629-0.5144,1.5444-1.239,3.2475-1.372c2.4444-0.191,6.4984,0.3274,8.9464,0.4645c1.5943,0.0892,3.542,0.6275,5.1313,0.7825
	c1.06,0.1034,1.0552-0.0121,2.1111,0.1274c0.6678,0.0882,0.6827-0.2083,1.2234,0.1934c0.6475,0.4809,1.4641,0.0222,1.8421,0.7346
	c0.469,0.8839,0.5894,1.1134,0.8004,2.0915c0.1496,0.6938,0.0657,1.8873-0.5764,2.1895c-1.0997,0.5175-2.5064-0.8631-2.6999-0.9276
	c-0.1936-0.0645-5.2785-1.3058-5.5366-1.2412c-0.2581,0.0645-5.2683,0.5755-5.4619,0.6401
	c-0.1935,0.0645-4.4921-0.1902-5.958,0.0831c-0.6955,0.1297-0.1986,0.7421-0.8393,1.0424c-0.4673,0.219-0.6403-0.447-1.0939-0.2005
	c-1.1069,0.6015-0.8113,0.9696-2.0283,0.6438C11.0301,37.1471,12.8991,36.0897,13.1558,33.9072z"/>
<path fill="none" stroke="#7E4300" stroke-width="4.0745" stroke-linecap="round" stroke-linejoin="round" stroke-miterlimit="10" d="
	M35.981,38.8792c-0.5502-0.8645-0.5902-0.44-1.5068-0.8982c-0.5039-0.252-0.449-0.215-0.9852-0.3879
	c-1.4676-0.4735-3.3514-0.7341-4.8734-0.9819c-1.2741-0.2074-1.2408-0.2973-2.5316-0.2973c-1.0329,0-2.0854-0.9706-3.1165-0.9117
	c-1.2277,0.0702-4.1011,1.1546-5.2799,1.5046c-0.9442,0.2803-0.6028,0.9061-1.506,1.2988c-0.6034,0.2624-0.698-0.5443-1.1117-0.0326
	c-0.9455,1.1694-4.1362,0.7287-4.4837,2.1918c-0.2759,1.1618-0.3032,2.0003,0.8612,2.265c2.2184,0.5042,2.1235-0.049,4.3639-0.4444
	c2.193-0.387,8.1267-1.6876,10.3532-1.6463c1.2646,0.0234,1.3347,0.4968,2.5758,0.7406c0.7995,0.157,5.4229,0.4345,5.7455,0.7571
	c0.3226,0.3226,1.6213,0.9254,1.9439,1.0545c0.3227,0.129,0.9055,1.0233,2.0375,1.185c0.6201,0.0886,0.4126,0.2294,0.5416-0.3835
	c0.2886-1.3706,0.8532-1.3531,0.3821-2.6722c-0.1806-0.5056-1.3522-0.068-1.5251-0.5763
	C37.5993,39.861,36.4833,39.6685,35.981,38.8792z"/>
<path fill="none" stroke="#7E4300" stroke-width="4.0745" stroke-linecap="round" stroke-linejoin="round" stroke-miterlimit="10" d="
	M20.3747,8.2956c-0.2791,0.2924-0.2752,0.4361,0.1286,0.4551c1.8868,0.0884,1.8587-0.3626,3.7422-0.5044
	c1.1264-0.0848,1.1237,0.0632,2.249,0.162c0.7186,0.063,0.7332,0.414,1.3334,0.0138c0.4839-0.3226,0.4879-0.6575,0.0082-0.9864
	c-0.9186-0.6299-1.0689-0.2585-2.175-0.3897c-0.8015-0.0951-0.7856,0.0683-1.5899,0.1365
	c-1.1098,0.0941-1.0451,0.2838-2.1331,0.5223C21.0684,7.8954,21.0242,7.6152,20.3747,8.2956z"/>
<path fill="none" stroke="#7E4300" stroke-width="4.0745" stroke-linecap="round" stroke-linejoin="round" stroke-miterlimit="10" d="
	M20.3996,6.0676c-0.4276,0.5701-0.5669,0.5401,0.026,0.9355c0.6834,0.4555,1.0452-0.1605,1.3678-0.1605s1.3525-0.7123,2.7506-0.8104
	c0.6148-0.0432,0.6851,0.1061,1.2931,0.2074c0.749,0.1249,0.6778,0.689,1.4019,0.4604c0.36-0.1137,0.177-0.3077,0.0732-0.6708
	c-0.0903-0.3163-0.1164-0.4388-0.4225-0.5593c-0.9349-0.3683-0.9621-0.373-1.958-0.5057c-0.941-0.1255-0.9823-0.3678-1.93-0.3121
	c-0.7539,0.0444-0.602,0.9206-1.3376,1.0918C20.987,5.9015,20.8597,5.4541,20.3996,6.0676z"/>
<path fill="#E2D7D1" d="M18.7028,10.3989c0.5976-1.0289,0.7153-0.1076,2.0165-0.2641c0.761-0.0916,1.6402,0.1597,2.4016,0.076
	c1.2465-0.1371,2.0978-0.6081,2.1853-0.5644c0.2324,0.1162,0.9356,0.5695,1.821,0.6216c0.725,0.0427,0.7485-0.4621,1.4721-0.4006
	c0.6473,0.0551,0.7743-0.3169,1.2496,0.126c0.9149,0.8525,0.8784,0.931,1.2258,2.1324c0.3715,1.285,0.2811,1.2773,0.5026,2.5964
	c0.1885,1.1224-0.1074,1.1851,0.2408,2.2685c0.3488,1.0852,0.0438,1.1832,0.3927,2.2684c0.3488,1.0851,0.6979,0.9041,0.761,2.0422
	c0.0576,1.0415,0.5075,1.0992,0.1842,2.0908c-0.1175,0.3602-0.2498,0.6044-0.5886,0.435c-0.7297-0.3648-0.7306-1.444-0.963-1.5021
	c-0.2324-0.0581-0.8424,0.1174-1.2491,0.1174s-1.7782,0.0906-2.243,0.2068c-0.4649,0.1162-1.3569-0.1591-2.639-0.1779
	c-1.0764-0.0158-1.9827-0.7122-2.2733-0.6541c-0.2905,0.0581-1.444,0.873-1.6764,0.873s-3.0897-0.5338-3.264-0.4757
	s-0.424,0.823-1.0059,0.7765c-0.2388-0.0191-0.2295-0.4149-0.4438-0.3078c-0.3327,0.1664-0.1409,0.7568-0.4288,0.5212
	c-0.4325-0.3539-0.527-0.4728-0.5647-1.0303c-0.1078-1.5953,0.196-1.6202,0.2805-3.2168c0.0616-1.1638-0.1544-1.2051,0.049-2.3526
	c0.2034-1.1476,1.6306-1.075,1.7986-2.2282c0.1518-1.0413-0.3075-1.0926-0.2008-2.1394
	C17.8447,11.2448,18.1744,11.3089,18.7028,10.3989z"/>
<path fill="#E2D7D1" d="M16.3362,24.359c0.1743-0.0581,0.2053-0.1955,0.594-0.2832c0.7107-0.1605,0.6699,0.2027,1.398,0.1772
	c0.9364-0.0329,1.9027-0.5902,2.8323-0.7064c0.9297-0.1162,0.9399-0.0416,1.8731-0.1239c1.0435-0.0921,1.0798,0.5485,2.1257,0.4904
	s1.0107-0.7043,2.0581-0.6902c1.1073,0.015,1.0993,0.1239,2.2033,0.2116c0.7263,0.0576,1.1362-0.7911,1.7479-0.3953
	c0.9869,0.6386,0.181,1.5677,0.8997,2.4978c0.2711,0.3509,0.3238,0.1659,0.4314,0.5961c0.0787,0.3151,0.3868,0.252,0.3124,0.5682
	c-0.1582,0.6722,0.9962,0.6886,0.8826,1.3698c-0.062,0.3725-0.0862,0.0466-0.4518,0.1413
	c-0.7778,0.2017-1.5509-0.2747-2.3481-0.3756c-1.5032-0.1903-0.5834,0.4478-2.0972,0.3847
	c-1.2759-0.0532-1.2759,0.3062-2.5529,0.3062c-1.2773,0-5.2773-0.9481-6.5546-0.9481c-1.2794,0-1.2794,0.1921-2.5588,0.1921
	c-1.2793,0-1.3599-0.0849-2.61,0.1877c-0.462,0.1007,0.1013,1.2317-0.0252,0.776c-0.3045-1.0961-0.1927-0.9591-0.1193-2.0943
	C14.4502,25.5043,16.1537,25.4818,16.3362,24.359z"/>
<path fill="#E2D7D1" d="M14.1344,29.9829c0.117-0.4327-0.0836-0.5411,0.3935-0.6533c1.0676-0.251,1.0771-0.4924,2.1799-0.5186
	c1.1046-0.0263,1.1019-0.1163,2.2065-0.1426c1.1046-0.0263,4.111-0.058,5.2158-0.0718c0.9866-0.0124,1.9948-0.0155,2.9815-0.0155
	c0.9883,0,0.9883,1.0436,1.9766,1.0436s0.9261-0.2249,1.9017-0.082c1.1976,0.1754,1.4134-0.4695,2.198,0.3666
	c0.639,0.681,1.0892,1.0532,0.6581,1.8566c0.5682-1.0589,3.4369,1.6968-1.5509,0.1552c-0.8176-0.2527-1.1722-0.6993-1.4046-0.6993
	c-0.2325,0-2.6575-0.4744-3.1223-0.5269c-0.227-0.0256-2.4716,0.3881-3.6778,0.3363c-1.2647-0.0544-5.4395-0.2227-5.5585-0.1958
	c-0.2324,0.0525-1.7785-0.1475-3.4943-0.0791c-0.3784,0.0151-0.6599-0.3778-0.9485-0.1562
	c-0.3866,0.2969,0.2728,0.7027-0.2338,0.7289C12.9254,31.377,13.9066,30.8247,14.1344,29.9829z"/>
<path fill="#E2D7D1" d="M13.2539,33.1728c0.1466-0.6228,1.0313-0.1923,1.4184-0.7017c0.1658-0.2182-0.3755-1.0043-0.1142-1.0868
	c1.467-0.4632,1.6444,0.1945,3.1734,0.0246c1.0972-0.1219,1.0826-0.1459,2.1866-0.1459c1.1039,0,5.0677,0.3604,6.1681,0.4489
	c1.4333,0.1153,1.4287,0.0485,2.8599,0.1882c2.9397,0.2868,3.0435,0.1186,1.9195-0.0298c0.6014,0.0794,2.5317,0.0249,3.0187,0.3866
	c0.583,0.4331,1.1191,0.0713,1.4595,0.7129c0.4224,0.796-0.1054,1.056,0.0846,1.9368c0.1347,0.6248,0.6728,0.8914,0.0945,1.1635
	c-0.9903,0.466-2.0105-0.0371-2.1848-0.0953c-0.1743-0.0581-4.9602-1.5025-5.1926-1.4443
	c-0.1155,0.0288-0.9757,0.5709-1.9643,0.5564c-1.0015-0.0146-6.2006-0.6629-6.2883-0.6336c-0.1743,0.0581-1.09,0.5171-2.41,0.7633
	c-0.6264,0.1167-0.5309,0.0168-1.1079,0.2872c-0.4208,0.1973-0.5662-0.271-0.9746-0.049c-0.9968,0.5417-0.4762,2.0012-1.5683,1.6941
	c-0.9525-0.2679-0.3457-0.8457-0.5926-1.8038C12.9711,34.3033,13.0273,34.1359,13.2539,33.1728z"/>
<path fill="#E2D7D1" d="M35.07,38.6751c-0.4954-0.7786-0.4301-0.5291-1.2555-0.9418c-0.4538-0.2269-0.4051-0.2462-0.888-0.402
	c-1.3216-0.4263-3.3126-0.2234-4.6833-0.4465c-1.1473-0.1868-1.071,0.0373-2.2334,0.0373c-0.9301,0-1.9613-1.1825-2.8899-1.1294
	c-1.1056,0.0631-3.9844,0.8365-5.046,1.1516c-0.8502,0.2524-0.7491,0.3166-1.5625,0.6702c-0.5434,0.2363-0.977-0.4986-1.3496-0.0378
	c-0.8514,1.0531-2.9245,1.197-3.2374,2.5146c-0.2485,1.0462-0.3589,1.2501,0.4808,1.9219c0.7998,0.6399,0.6123-0.3909,1.5855-0.7104
	c0.9732-0.3196,0.9558-0.6775,1.9645-0.8555c0.9875-0.1743,1.0894-0.0108,2.0917-0.0398c1.0022-0.0291,6.9973,1.0051,7.9991,1.046
	c1.138,0.0465,1.0877-0.1022,2.2053,0.1173c0.72,0.1414,3.0311,0.0255,3.3216,0.316c0.2906,0.2905,3.5261,1.2698,3.8166,1.386
	c0.2905,0.1162,1.1978-0.2483,2.2172-0.1026c0.5584,0.0798,0.6592,0.6097,0.7754,0.0578c0.2599-1.2343-0.2035-1.0618-0.6277-2.2496
	c-0.1627-0.4553,0.3147-0.6078,0.1419-1.0593C37.6318,39.2273,35.5223,39.3859,35.07,38.6751z"/>
<path fill="#E2D7D1" d="M20.6516,8.89c-0.2514,0.3366-0.1362,0.8033,0.2274,0.825c1.6991,0.1018,1.6735-0.6791,3.3696-0.8422
	c1.0144-0.0976,1.0438-0.1979,2.0571-0.0843c0.6472,0.0725,0.7682,1.1072,1.3087,0.6466c0.4358-0.3713,0.3178-1.0355-0.1141-1.414
	c-0.8272-0.725-0.9651-0.3791-1.9611-0.5301c-0.7218-0.1095-0.7191,0.154-1.4433,0.2324c-0.9995,0.1083-1.0259-0.1815-2.0146,0.0342
	C21.2624,7.9364,21.2364,8.107,20.6516,8.89z"/>
<path fill="#E2D7D1" d="M21.1431,6.2472c-0.385,0.5134-0.7213,0.9464-0.1873,1.3024c0.6154,0.4102,1.2159-0.7546,1.5064-0.7546
	c0.2905,0,1.2375-0.1663,2.4965-0.2547c0.5536-0.0388,0.5913-0.1442,1.1388-0.0529c0.6744,0.1124,0.6742,0.7656,1.3262,0.5597
	c0.3243-0.1024-0.1372-0.3913-0.2306-0.7182c-0.0814-0.2849,0.1679-0.5491-0.1078-0.6577
	c-0.8418-0.3317-0.9576,0.1817-1.8545,0.0621c-0.8474-0.113-0.806-0.4047-1.6594-0.3545c-0.6789,0.0399-0.5847,0.4013-1.2513,0.5356
	C21.6835,6.0427,21.5575,5.6947,21.1431,6.2472z"/>
</svg>
